# xmcd
#
# Track frame offsets: 
#        300
#        14420
#        34984
#        56204
#        71499
#        88538
#        104508
#        122284
#        144984
#        164896
#        181803
#
# Disc length: 2692 seconds
#
# Revision: 0
# Processed by: cddbd v1.5.2PL0 Copyright (c) Steve Scherf et al.
# Submitted via: ExactAudioCopy v1.0b1
#
DISCID=990a800b
DTITLE=Ruthie Foster - The Phenomenal Ruthie Foster
DYEAR=2007
DGENRE=Blues
TTITLE0=Cuz I'm Here
TTITLE1=Heal Yourself
TTITLE2=Fruits of My Labor
TTITLE3=People Grinnin' in Your Face
TTITLE4=Up Above My Head (I Hear Music In the Air)
TTITLE5=Harder Than the Fall
TTITLE6=Beaver Creek Blues
TTITLE7=Mama Said
TTITLE8=Phenomenal Woman
TTITLE9=A Friend Like You
TTITLE10=I Don't Know What to Do with My Heart
EXTD=
EXTT0=
EXTT1=
EXTT2=
EXTT3=
EXTT4=
EXTT5=
EXTT6=
EXTT7=
EXTT8=
EXTT9=
EXTT10=
PLAYORDER=
